{"title":"Ultimate.Linsey.2001.DVDRip.x264.Iou1","uid":8433207,"size":730993592,"categoryP":"porn","categoryS":"movies","magnet":"?xt=urn:btih:e8dc72e290de9ce10306f245ac5e51a34b443615&amp;dn=Ultimate.Linsey.2001.DVDRip.x264.Iou1&amp;tr=udp%3A%2F%2Ftracker.openbittorrent.com%3A80&amp;tr=udp%3A%2F%2Fopen.demonii.com%3A1337&amp;tr=udp%3A%2F%2Ftracker.coppersurfer.tk%3A6969&amp;tr=udp%3A%2F%2Fexodus.desync.com%3A6969","seeders":0,"leechers":0,"uploader":"jaybee211","files":-1,"time":1367551460,"description":"Format                                   : MPEG-4\nFormat profile                           : Base Media / Version 2\nCodec ID                                 : mp42\nFile size                                : 697 MiB\nDuration                                 : 56mn 31s\nOverall bit rate mode                    : Variable\nOverall bit rate                         : 1 724 Kbps\n\nVideo\nID                                       : 1\nFormat                                   : AVC\nFormat/Info                              : Advanced Video Codec\nFormat profile                           : &lt;a class=&quot;__cf_email__&quot; href=&quot;/cdn-cgi/l/email-protection&quot; data-cfemail=&quot;2961404e4169651a0718&quot;&gt;[email&amp;#160;protected]&lt;/a&gt;&lt;script data-cfhash='f9e31' type=&quot;text/javascript&quot;&gt;\n/* &lt;![CDATA[ */!function(){try{var t=&quot;currentScript&quot;in document?document.currentScript:function(){for(var t=document.getElementsByTagName(&quot;script&quot;),e=t.length;e--;)if(t[e].getAttribute(&quot;data-cfhash&quot;))return t[e]}();if(t&amp;&amp;t.previousSibling){var e,r,n,i,c=t.previousSibling,a=c.getAttribute(&quot;data-cfemail&quot;);if(a){for(e=&quot;&quot;,r=parseInt(a.substr(0,2),16),n=2;a.length-n;n+=2)i=parseInt(a.substr(n,2),16)^r,e+=String.fromCharCode(i);e=document.createTextNode(e),c.parentNode.replaceChild(e,c)}t.parentNode.removeChild(t);}}catch(u){}}()/* ]]&gt; */&lt;/script&gt;\nFormat settings, CABAC                   : Yes\nFormat settings, ReFrames                : 4 frames\nCodec ID                                 : avc1\nCodec ID/Info                            : Advanced Video Coding\nDuration                                 : 56mn 31s\nBit rate mode                            : Variable\nBit rate                                 : 1 658 Kbps\nMaximum bit rate                         : 3 533 Kbps\nWidth                                    : 720 pixels\nHeight                                   : 540 pixels\nDisplay aspect ratio                     : 4:3\nFrame rate mode                          : Constant\nFrame rate                               : 29.970 fps\nStandard                                 : NTSC\nColor space                              : YUV\nChroma subsampling                       : 4:2:0\nBit depth                                : 8 bits\nScan type                                : Progressive\nBits/(Pixel*Frame)                       : 0.142\nStream size                              : 670 MiB (96%)\nLanguage                                 : English\n\nAudio\nID                                       : 2\nFormat                                   : AAC\nFormat/Info                              : Advanced Audio Codec\nFormat profile                           : LC\nCodec ID                                 : 40\nDuration                                 : 56mn 31s\nBit rate mode                            : Variable\nBit rate                                 : 61.9 Kbps\nMaximum bit rate                         : 72.0 Kbps\nChannel(s)                               : 2 channels\nChannel positions                        : Front: L R\nSampling rate                            : 48.0 KHz\nCompression mode                         : Lossy\nStream size                              : 25.0 MiB (4%)\nTitle                                    : Dolby Digital 5.1-ch 48KHz\nLanguage                                 : English\n\nScreens &lt;a href=&quot; http://bayimg.com/oAmiLaAEi&quot; rel=&quot;nofollow&quot; target=&quot;_NEW&quot;&gt; http://bayimg.com/oAmiLaAEi&lt;/a&gt;\n\n        &lt;a href=&quot; http://bayimg.com/OAMIMAaei&quot; rel=&quot;nofollow&quot; target=&quot;_NEW&quot;&gt; http://bayimg.com/OAMIMAaei&lt;/a&gt;\n\n        &lt;a href=&quot; http://bayimg.com/oaMinAAEI&quot; rel=&quot;nofollow&quot; target=&quot;_NEW&quot;&gt; http://bayimg.com/oaMinAAEI&lt;/a&gt;  \n\nEnjoy.","torrent":{"xt":"urn:btih:e8dc72e290de9ce10306f245ac5e51a34b443615","amp;dn":"Ultimate.Linsey.2001.DVDRip.x264.Iou1","amp;tr":["udp%3A%2F%2Ftracker.openbittorrent.com%3A80","udp%3A%2F%2Fopen.demonii.com%3A1337","udp%3A%2F%2Ftracker.coppersurfer.tk%3A6969","udp%3A%2F%2Fexodus.desync.com%3A6969"],"infoHash":"e8dc72e290de9ce10306f245ac5e51a34b443615","infoHashBuffer":{"type":"Buffer","data":[232,220,114,226,144,222,156,225,3,6,242,69,172,94,81,163,75,68,54,21]},"announce":[],"urlList":[]}}